SplineFontDB: 3.2
FontName: SwastixBlock-Ital
FullName: Swastix Block Italic
FamilyName: Swastix Block
Weight: Regular
Copyright: Shankar Sivarajan
UComments: "2023-6-18: Created with FontForge (http://fontforge.org)"
Version: 
ItalicAngle: 0
UnderlinePosition: -70
UnderlineWidth: 35
Ascent: 600
Descent: 100
InvalidEm: 0
LayerCount: 2
Layer: 0 0 "Back" 1
Layer: 1 0 "Fore" 0
XUID: [1021 146 -1796264217 10339]
FSType: 0
OS2Version: 0
OS2_WeightWidthSlopeOnly: 0
OS2_UseTypoMetrics: 1
CreationTime: 1687110331
ModificationTime: 1689124142
PfmFamily: 17
TTFWeight: 400
TTFWidth: 5
LineGap: 63
VLineGap: 0
OS2TypoAscent: 0
OS2TypoAOffset: 1
OS2TypoDescent: 0
OS2TypoDOffset: 1
OS2TypoLinegap: 63
OS2WinAscent: 0
OS2WinAOffset: 1
OS2WinDescent: 0
OS2WinDOffset: 1
HheadAscent: 0
HheadAOffset: 1
HheadDescent: 0
HheadDOffset: 1
OS2Vendor: 'PfEd'
Lookup: 1 0 0 "NoCaps" { "NoCaps subtable"  } ['liga' ('latn' <'dflt' > 'DFLT' <'dflt' > ) ]
Lookup: 260 0 0 "'mark' Mark Positioning lookup 1" { "'mark' Mark Positioning lookup 1-1"  } ['mark' ('DFLT' <'dflt' > 'latn' <'dflt' > ) ]
MarkAttachClasses: 1
DEI: 91125
LangName: 1033
Encoding: win
Compacted: 1
UnicodeInterp: none
NameList: AGL For New Fonts
DisplaySize: -48
AntiAlias: 1
FitToEm: 0
WinInfo: 0 48 16
BeginPrivate: 0
EndPrivate
TeXData: 1 0 0 419430 209715 139810 0 1048576 139810 783286 444596 497025 792723 393216 433062 380633 303038 157286 324010 404750 52429 2506097 1059062 262144
AnchorClass2: "grid_center" "'mark' Mark Positioning lookup 1-1" "grid_center""" 
BeginChars: 257 55

StartChar: A
Encoding: 65 65 2
Width: 600
Flags: HW
HStem: 400 100<50 350>
AnchorPoint: "grid_center" 300 250 mark 0
LayerCount: 2
Fore
SplineSet
130 400 m 1
 150 500 l 1
 450 500 l 1
 430 400 l 1
 130 400 l 1
EndSplineSet
Substitution2: "NoCaps subtable" a
EndChar

StartChar: B
Encoding: 66 66 3
Width: 600
Flags: HW
HStem: 400 100<250 550>
AnchorPoint: "grid_center" 300 250 mark 0
LayerCount: 2
Fore
SplineSet
330 400 m 1
 350 500 l 1
 650 500 l 1
 630 400 l 1
 330 400 l 1
EndSplineSet
Substitution2: "NoCaps subtable" b
EndChar

StartChar: C
Encoding: 67 67 4
Width: 600
Flags: HW
VStem: 50 100<200 500>
AnchorPoint: "grid_center" 300 250 mark 0
LayerCount: 2
Fore
SplineSet
90 200 m 1
 150 500 l 1
 250 500 l 1
 190 200 l 1
 90 200 l 1
EndSplineSet
Substitution2: "NoCaps subtable" c
EndChar

StartChar: D
Encoding: 68 68 5
Width: 600
Flags: HW
VStem: 250 100<200 500>
AnchorPoint: "grid_center" 300 250 mark 0
LayerCount: 2
Fore
SplineSet
290 200 m 1
 350 500 l 1
 450 500 l 1
 390 200 l 1
 290 200 l 1
EndSplineSet
Substitution2: "NoCaps subtable" d
EndChar

StartChar: E
Encoding: 69 69 6
Width: 600
Flags: HW
VStem: 450 100<200 500>
AnchorPoint: "grid_center" 300 250 mark 0
LayerCount: 2
Fore
SplineSet
490 200 m 1
 550 500 l 1
 650 500 l 1
 590 200 l 1
 490 200 l 1
EndSplineSet
Substitution2: "NoCaps subtable" e
EndChar

StartChar: F
Encoding: 70 70 7
Width: 600
Flags: HW
HStem: 200 100<50 350>
AnchorPoint: "grid_center" 300 250 mark 0
LayerCount: 2
Fore
SplineSet
90 200 m 1
 110 300 l 1
 410 300 l 1
 390 200 l 1
 90 200 l 1
EndSplineSet
Substitution2: "NoCaps subtable" f
EndChar

StartChar: G
Encoding: 71 71 8
Width: 600
Flags: HW
HStem: 200 100<250 550>
AnchorPoint: "grid_center" 300 250 mark 0
LayerCount: 2
Fore
SplineSet
290 200 m 1
 310 300 l 1
 610 300 l 1
 590 200 l 1
 290 200 l 1
EndSplineSet
Substitution2: "NoCaps subtable" g
EndChar

StartChar: H
Encoding: 72 72 9
Width: 600
Flags: HW
HStem: 0 21G<50 150>
VStem: 50 100<0 300>
AnchorPoint: "grid_center" 300 250 mark 0
LayerCount: 2
Fore
SplineSet
50 0 m 1
 110 300 l 1
 210 300 l 1
 150 0 l 1
 50 0 l 1
EndSplineSet
Substitution2: "NoCaps subtable" h
EndChar

StartChar: I
Encoding: 73 73 10
Width: 600
Flags: HW
HStem: 0 21G<250 350>
VStem: 250 100<0 300>
AnchorPoint: "grid_center" 300 250 mark 0
LayerCount: 2
Fore
SplineSet
250 0 m 1
 310 300 l 1
 410 300 l 1
 350 0 l 1
 250 0 l 1
EndSplineSet
Substitution2: "NoCaps subtable" i
EndChar

StartChar: J
Encoding: 74 74 11
Width: 600
Flags: HW
HStem: 0 21G<450 550>
VStem: 450 100<0 300>
AnchorPoint: "grid_center" 300 250 mark 0
LayerCount: 2
Fore
SplineSet
450 0 m 1
 510 300 l 1
 610 300 l 1
 550 0 l 1
 450 0 l 1
EndSplineSet
Substitution2: "NoCaps subtable" j
EndChar

StartChar: K
Encoding: 75 75 12
Width: 600
Flags: HW
HStem: 0 100<50 350>
AnchorPoint: "grid_center" 300 250 mark 0
LayerCount: 2
Fore
SplineSet
50 0 m 1
 70 100 l 5
 370 100 l 5
 350 0 l 1
 50 0 l 1
EndSplineSet
Substitution2: "NoCaps subtable" k
EndChar

StartChar: L
Encoding: 76 76 13
Width: 600
Flags: HW
HStem: 0 100<250 550>
AnchorPoint: "grid_center" 300 250 mark 0
LayerCount: 2
Fore
SplineSet
250 0 m 1
 270 100 l 1
 570 100 l 1
 550 0 l 1
 250 0 l 1
EndSplineSet
Substitution2: "NoCaps subtable" l
EndChar

StartChar: one
Encoding: 49 49 14
Width: 600
Flags: HW
AnchorPoint: "grid_center" 300 250 mark 0
LayerCount: 2
Fore
SplineSet
330 400 m 1
 350 500 l 1
 450 500 l 1
 430 400 l 1
 330 400 l 1
EndSplineSet
EndChar

StartChar: two
Encoding: 50 50 15
Width: 600
Flags: HW
AnchorPoint: "grid_center" 300 250 mark 0
LayerCount: 2
Fore
SplineSet
530 400 m 1
 550 500 l 1
 650 500 l 1
 630 400 l 1
 530 400 l 1
EndSplineSet
EndChar

StartChar: three
Encoding: 51 51 16
Width: 600
Flags: HW
AnchorPoint: "grid_center" 300 250 mark 0
LayerCount: 2
Fore
SplineSet
90 200 m 1
 110 300 l 1
 210 300 l 1
 190 200 l 1
 90 200 l 1
EndSplineSet
EndChar

StartChar: four
Encoding: 52 52 17
Width: 600
Flags: HW
AnchorPoint: "grid_center" 300 250 mark 0
LayerCount: 2
Fore
SplineSet
290 200 m 1
 310 300 l 1
 410 300 l 1
 390 200 l 1
 290 200 l 1
EndSplineSet
EndChar

StartChar: five
Encoding: 53 53 18
Width: 600
Flags: HW
AnchorPoint: "grid_center" 300 250 mark 0
LayerCount: 2
Fore
SplineSet
490 200 m 1
 510 300 l 1
 610 300 l 1
 590 200 l 1
 490 200 l 1
EndSplineSet
EndChar

StartChar: six
Encoding: 54 54 19
Width: 600
Flags: HW
AnchorPoint: "grid_center" 300 250 mark 0
LayerCount: 2
Fore
SplineSet
50 0 m 1
 70 100 l 5
 170 100 l 5
 150 0 l 1
 50 0 l 1
EndSplineSet
EndChar

StartChar: seven
Encoding: 55 55 20
Width: 600
Flags: HW
AnchorPoint: "grid_center" 300 250 mark 0
LayerCount: 2
Fore
SplineSet
250 0 m 1
 270 100 l 1
 370 100 l 1
 350 0 l 1
 250 0 l 1
EndSplineSet
EndChar

StartChar: eight
Encoding: 56 56 21
Width: 600
Flags: HW
AnchorPoint: "grid_center" 300 250 mark 0
LayerCount: 2
Fore
SplineSet
450 0 m 1
 470 100 l 5
 570 100 l 5
 550 0 l 1
 450 0 l 1
EndSplineSet
EndChar

StartChar: a
Encoding: 97 97 22
Width: 600
Flags: W
HStem: 400 100<50 350>
AnchorPoint: "grid_center" 300 250 mark 0
LayerCount: 2
Fore
SplineSet
130 400 m 1
 150 500 l 1
 450 500 l 1
 430 400 l 1
 130 400 l 1
EndSplineSet
EndChar

StartChar: b
Encoding: 98 98 23
Width: 600
Flags: W
HStem: 400 100<250 550>
AnchorPoint: "grid_center" 300 250 mark 0
LayerCount: 2
Fore
SplineSet
330 400 m 1
 350 500 l 1
 650 500 l 1
 630 400 l 1
 330 400 l 1
EndSplineSet
EndChar

StartChar: c
Encoding: 99 99 24
Width: 600
Flags: W
VStem: 50 100<200 500>
AnchorPoint: "grid_center" 300 250 mark 0
LayerCount: 2
Fore
SplineSet
90 200 m 1
 150 500 l 1
 250 500 l 1
 190 200 l 1
 90 200 l 1
EndSplineSet
EndChar

StartChar: d
Encoding: 100 100 25
Width: 600
Flags: W
VStem: 250 100<200 500>
AnchorPoint: "grid_center" 300 250 mark 0
LayerCount: 2
Fore
SplineSet
290 200 m 1
 350 500 l 1
 450 500 l 1
 390 200 l 1
 290 200 l 1
EndSplineSet
EndChar

StartChar: e
Encoding: 101 101 26
Width: 600
Flags: W
VStem: 450 100<200 500>
AnchorPoint: "grid_center" 300 250 mark 0
LayerCount: 2
Fore
SplineSet
490 200 m 1
 550 500 l 1
 650 500 l 1
 590 200 l 1
 490 200 l 1
EndSplineSet
EndChar

StartChar: f
Encoding: 102 102 27
Width: 600
Flags: W
HStem: 200 100<50 350>
AnchorPoint: "grid_center" 300 250 mark 0
LayerCount: 2
Fore
SplineSet
90 200 m 1
 110 300 l 1
 410 300 l 1
 390 200 l 1
 90 200 l 1
EndSplineSet
EndChar

StartChar: g
Encoding: 103 103 28
Width: 600
Flags: W
HStem: 200 100<250 550>
AnchorPoint: "grid_center" 300 250 mark 0
LayerCount: 2
Fore
SplineSet
290 200 m 1
 310 300 l 1
 610 300 l 1
 590 200 l 1
 290 200 l 1
EndSplineSet
EndChar

StartChar: h
Encoding: 104 104 29
Width: 600
Flags: W
HStem: 0 21G<50 150>
VStem: 50 100<0 300>
AnchorPoint: "grid_center" 300 250 mark 0
LayerCount: 2
Fore
SplineSet
50 0 m 1
 110 300 l 1
 210 300 l 1
 150 0 l 1
 50 0 l 1
EndSplineSet
EndChar

StartChar: i
Encoding: 105 105 30
Width: 600
Flags: W
HStem: 0 21G<250 350>
VStem: 250 100<0 300>
AnchorPoint: "grid_center" 300 250 mark 0
LayerCount: 2
Fore
SplineSet
250 0 m 1
 310 300 l 1
 410 300 l 1
 350 0 l 1
 250 0 l 1
EndSplineSet
EndChar

StartChar: j
Encoding: 106 106 31
Width: 600
Flags: W
HStem: 0 21G<450 550>
VStem: 450 100<0 300>
AnchorPoint: "grid_center" 300 250 mark 0
LayerCount: 2
Fore
SplineSet
450 0 m 1
 510 300 l 1
 610 300 l 1
 550 0 l 1
 450 0 l 1
EndSplineSet
EndChar

StartChar: k
Encoding: 107 107 32
Width: 600
Flags: W
HStem: 0 100<50 350>
AnchorPoint: "grid_center" 300 250 mark 0
LayerCount: 2
Fore
SplineSet
50 0 m 1
 70 100 l 5
 370 100 l 5
 350 0 l 1
 50 0 l 1
EndSplineSet
EndChar

StartChar: l
Encoding: 108 108 33
Width: 600
Flags: W
HStem: 0 100<250 550>
AnchorPoint: "grid_center" 300 250 mark 0
LayerCount: 2
Fore
SplineSet
250 0 m 1
 270 100 l 1
 570 100 l 1
 550 0 l 1
 250 0 l 1
EndSplineSet
EndChar

StartChar: .notdef
Encoding: 256 -1 34
Width: 600
Flags: HW
CounterMasks: 1 07
LayerCount: 2
Fore
SplineSet
450 0 m 5
 470 100 l 5
 570 100 l 5
 550 0 l 5
 450 0 l 5
250 0 m 5
 270 100 l 5
 370 100 l 5
 350 0 l 5
 250 0 l 5
50 0 m 5
 70 100 l 5
 170 100 l 5
 150 0 l 5
 50 0 l 5
490 200 m 1
 510 300 l 1
 610 300 l 1
 590 200 l 1
 490 200 l 1
90 200 m 1
 110 300 l 1
 210 300 l 1
 190 200 l 1
 90 200 l 1
530 400 m 1
 550 500 l 1
 650 500 l 1
 630 400 l 1
 530 400 l 1
330 400 m 1
 350 500 l 1
 450 500 l 1
 430 400 l 1
 330 400 l 1
130 400 m 1
 150 500 l 1
 250 500 l 1
 230 400 l 1
 130 400 l 1
EndSplineSet
EndChar

StartChar: zero
Encoding: 48 48 35
Width: 600
Flags: HW
AnchorPoint: "grid_center" 300 250 mark 0
LayerCount: 2
Fore
SplineSet
130 400 m 5
 150 500 l 5
 250 500 l 5
 230 400 l 5
 130 400 l 5
EndSplineSet
EndChar

StartChar: period
Encoding: 46 46 36
Width: 300
Flags: HW
LayerCount: 2
Fore
SplineSet
100 0 m 1
 120 100 l 1
 220 100 l 1
 200 0 l 1
 100 0 l 1
EndSplineSet
EndChar

StartChar: comma
Encoding: 44 44 37
Width: 300
Flags: HW
LayerCount: 2
Fore
SplineSet
80 -100 m 1
 120 100 l 1
 220 100 l 1
 180 -100 l 1
 80 -100 l 1
EndSplineSet
EndChar

StartChar: periodcentered
Encoding: 183 183 38
Width: 300
Flags: HW
LayerCount: 2
Fore
SplineSet
140 200 m 1
 160 300 l 1
 260 300 l 1
 240 200 l 1
 140 200 l 1
EndSplineSet
EndChar

StartChar: endash
Encoding: 150 8211 39
Width: 500
Flags: W
HStem: 200 100<50 350>
LayerCount: 2
Fore
SplineSet
140 200 m 1
 160 300 l 1
 460 300 l 1
 440 200 l 1
 140 200 l 1
EndSplineSet
EndChar

StartChar: emdash
Encoding: 151 8212 40
Width: 600
Flags: HW
HStem: 200 100<50 350>
LayerCount: 2
Fore
SplineSet
140 200 m 1
 160 300 l 1
 560 300 l 1
 540 200 l 1
 140 200 l 1
EndSplineSet
EndChar

StartChar: quotesingle
Encoding: 39 39 41
Width: 200
Flags: HW
VStem: 50 100<200 500>
LayerCount: 2
Fore
SplineSet
110 300 m 1
 170 600 l 1
 270 600 l 1
 210 300 l 1
 110 300 l 1
EndSplineSet
EndChar

StartChar: quoteright
Encoding: 146 8217 42
Width: 200
Flags: W
VStem: 50 100<200 500>
LayerCount: 2
Fore
SplineSet
110 300 m 1
 170 600 l 1
 270 600 l 1
 210 300 l 1
 110 300 l 1
EndSplineSet
EndChar

StartChar: quoteleft
Encoding: 145 8216 43
Width: 200
Flags: W
VStem: 50 100<200 500>
LayerCount: 2
Fore
SplineSet
110 300 m 1
 170 600 l 1
 270 600 l 1
 210 300 l 1
 110 300 l 1
EndSplineSet
EndChar

StartChar: bullet
Encoding: 149 8226 44
Width: 300
Flags: HW
LayerCount: 2
Fore
SplineSet
140 200 m 1
 160 300 l 1
 260 300 l 1
 240 200 l 1
 140 200 l 1
EndSplineSet
EndChar

StartChar: degree
Encoding: 176 176 45
Width: 300
Flags: HW
LayerCount: 2
Fore
SplineSet
180 400 m 1
 200 500 l 1
 300 500 l 1
 280 400 l 1
 180 400 l 1
EndSplineSet
EndChar

StartChar: bar
Encoding: 124 124 46
Width: 300
Flags: HW
VStem: 50 100<200 500>
LayerCount: 2
Fore
SplineSet
100 0 m 1
 200 500 l 1
 300 500 l 1
 200 0 l 1
 100 0 l 1
EndSplineSet
EndChar

StartChar: hyphen
Encoding: 45 45 47
Width: 400
Flags: W
HStem: 200 100<50 350>
LayerCount: 2
Fore
SplineSet
140 200 m 1
 160 300 l 1
 360 300 l 1
 340 200 l 1
 140 200 l 1
EndSplineSet
EndChar

StartChar: colon
Encoding: 58 58 48
Width: 300
Flags: HW
LayerCount: 2
Fore
SplineSet
160 300 m 1
 180 400 l 1
 280 400 l 1
 260 300 l 1
 160 300 l 1
100 0 m 1
 120 100 l 1
 220 100 l 1
 200 0 l 1
 100 0 l 1
EndSplineSet
EndChar

StartChar: semicolon
Encoding: 59 59 49
Width: 300
Flags: HW
LayerCount: 2
Fore
SplineSet
160 300 m 1
 180 400 l 1
 280 400 l 1
 260 300 l 1
 160 300 l 1
80 -100 m 1
 120 100 l 1
 220 100 l 1
 180 -100 l 1
 80 -100 l 1
EndSplineSet
EndChar

StartChar: quotedbl
Encoding: 34 34 51
Width: 400
Flags: HW
VStem: 50 100<200 500>
LayerCount: 2
Fore
SplineSet
310 300 m 1
 370 600 l 1
 470 600 l 1
 410 300 l 1
 310 300 l 1
110 300 m 1
 170 600 l 1
 270 600 l 1
 210 300 l 1
 110 300 l 1
EndSplineSet
EndChar

StartChar: quotedblleft
Encoding: 147 8220 52
Width: 400
Flags: W
VStem: 50 100<200 500>
LayerCount: 2
Fore
SplineSet
310 300 m 1
 370 600 l 1
 470 600 l 1
 410 300 l 1
 310 300 l 1
110 300 m 1
 170 600 l 1
 270 600 l 1
 210 300 l 1
 110 300 l 1
EndSplineSet
EndChar

StartChar: quotedblright
Encoding: 148 8221 53
Width: 400
Flags: W
VStem: 50 100<200 500>
LayerCount: 2
Fore
SplineSet
310 300 m 1
 370 600 l 1
 470 600 l 1
 410 300 l 1
 310 300 l 1
110 300 m 1
 170 600 l 1
 270 600 l 1
 210 300 l 1
 110 300 l 1
EndSplineSet
EndChar

StartChar: ellipsis
Encoding: 133 8230 54
Width: 700
Flags: HW
LayerCount: 2
Fore
SplineSet
500 0 m 1
 520 100 l 1
 620 100 l 1
 600 0 l 1
 500 0 l 1
300 0 m 1
 320 100 l 1
 420 100 l 1
 400 0 l 1
 300 0 l 1
100 0 m 1
 120 100 l 1
 220 100 l 1
 200 0 l 1
 100 0 l 1
EndSplineSet
EndChar
